<?xml version="1.0" standalone="no"?>
<!DOCTYPE svg PUBLIC "-//W3C//DTD SVG 20010904//EN"
 "http://www.w3.org/TR/2001/REC-SVG-20010904/DTD/svg10.dtd">
<svg version="1.0" xmlns="http://www.w3.org/2000/svg"
 width="377.000000pt" height="377.000000pt" viewBox="0 0 377.000000 377.000000"
 preserveAspectRatio="xMidYMid meet">
<metadata>
Created by potrace 1.14, written by Peter Selinger 2001-2017
</metadata>
<g transform="translate(0.000000,377.000000) scale(0.100000,-0.100000)"
fill="#000000" stroke="none">
<path d="M1678 3764 c-4 -3 -49 -10 -100 -15 -108 -9 -188 -25 -202 -39 -6 -6
-24 -10 -41 -10 -42 0 -127 -30 -195 -69 -8 -5 -26 -13 -40 -19 -46 -19 -55
-23 -105 -52 -27 -16 -66 -37 -85 -46 -19 -10 -51 -31 -70 -46 -56 -46 -59
-48 -64 -48 -14 0 -87 -58 -145 -115 -36 -36 -80 -77 -97 -92 -17 -16 -44 -54
-59 -86 -20 -43 -40 -68 -76 -94 -36 -25 -67 -63 -112 -134 -85 -136 -146
-250 -147 -274 0 -12 -4 -25 -9 -30 -23 -26 -50 -136 -55 -225 -2 -39 -13 -74
-37 -120 l-34 -65 -3 -280 c-3 -260 -2 -286 18 -360 12 -44 26 -98 32 -120 5
-22 16 -58 24 -80 8 -23 14 -50 14 -61 0 -12 11 -36 25 -55 14 -19 39 -63 56
-98 91 -190 192 -345 314 -481 89 -101 103 -116 126 -135 208 -175 207 -175
354 -265 117 -73 242 -122 438 -175 31 -8 81 -21 110 -29 105 -29 219 -38 422
-33 192 5 275 13 347 35 18 6 62 18 98 28 190 50 332 107 447 182 45 28 86 52
90 53 9 0 69 47 174 136 79 66 236 231 284 298 16 22 46 63 66 90 20 28 50 75
66 105 76 141 148 287 150 305 2 11 12 47 22 80 51 154 83 420 82 670 0 86
-18 206 -47 315 -14 52 -35 131 -46 175 -11 44 -26 94 -33 110 -7 17 -17 48
-20 70 -4 22 -13 47 -20 55 -7 8 -15 28 -19 44 -4 15 -28 51 -55 80 -26 28
-56 63 -67 77 -10 15 -46 62 -80 105 -33 44 -69 96 -79 117 -29 61 -180 206
-295 282 -58 39 -109 72 -115 74 -5 2 -19 11 -31 20 -11 9 -52 32 -90 50 -38
19 -98 49 -134 66 -70 36 -221 85 -259 85 -13 0 -37 7 -54 14 -18 8 -68 18
-112 21 -131 10 -520 17 -527 9z"/>
<path d="M3745 604 c12 -85 24 -95 24 -21 1 55 -2 67 -15 67 -14 0 -15 -7 -9
-46z"/>
</g>
</svg>
